<svg width="64" height="64" viewBox="0 0 64 64" fill="none" xmlns="http://www.w3.org/2000/svg">
<path fill-rule="evenodd" clip-rule="evenodd" d="M31.9757 22.0608C37.4989 22.0608 41.9761 26.5519 41.9761 32.0919C41.9761 37.6319 37.4989 42.1233 31.9757 42.1233C26.4526 42.1233 21.9751 37.6319 21.9751 32.0919C21.9751 26.5519 26.4526 22.0608 31.9757 22.0608ZM37.996 32.0919C37.996 28.761 35.2958 26.0606 31.9649 26.0606C28.6338 26.0606 25.9337 28.761 25.9337 32.0919C25.9337 35.4229 28.6338 38.1232 31.9649 38.1232C35.2958 38.1232 37.996 35.4229 37.996 32.0919Z" fill="#E0C381"/>
<path fill-rule="evenodd" clip-rule="evenodd" d="M37.9921 10.0606L38.0077 1.99958C38.0077 1.99958 37.9335 -0.000366211 31.996 -0.000366211C26.0584 -0.000366211 25.9845 1.99958 25.9845 1.99958L25.9864 9.99831L21.9856 12.0089L16.9188 6.97742C16.9188 6.97742 14.8619 5.11428 9.98709 9.9892C5.1121 14.8643 6.96425 17.029 6.96425 17.029L11.9771 22.08L9.98782 25.9876L2.00886 25.9885C2.00886 25.9885 0.0020752 25.998 0.0020752 32.0609C0.0020752 38.1232 1.99519 38.0609 1.99519 38.0609L9.99593 38.042L12.0095 42.0117L7.07098 46.9708C7.07098 46.9708 5.14118 49.1657 10.0162 54.0406C14.8913 58.9157 17.0165 56.9778 17.0165 56.9778L21.9484 52.0133L25.9662 54.0609L25.9959 61.9992C25.9959 61.9992 25.9961 64.0003 31.996 64.0003C37.996 64.0003 37.9848 62.0012 37.9848 62.0012L37.9936 54.0607L41.9817 52.0124L46.984 57.0077C46.984 57.0077 49.0502 58.9273 53.9877 53.9899C58.9253 49.0525 56.9808 46.9827 56.9808 46.9827L51.984 42.073L53.9968 38.0079L61.999 38.0494C61.999 38.0494 63.9979 37.9983 63.9979 32.0606C63.9979 26.123 61.997 26.0604 61.997 26.0604L53.996 26.0557L51.9294 22.0564L57.0075 17.0493C57.0075 17.0493 58.9208 15.0109 53.9832 10.0735C49.0457 5.13599 47.0217 6.97273 47.0217 6.97273L41.9614 12.026L37.9921 10.0606ZM33.9961 3.99806H29.996V12.0608L20.9849 17.0097L14.9419 11.133L10.9789 14.9966L17.0165 21.0403L11.9336 30.0091L3.99608 30.0138V33.998H11.996L16.9969 43.0615L10.9781 49.0499L15.0818 52.9743L20.965 47.092L29.996 52.0607V59.9981H33.9961V52.0607L42.928 47.004L49.0234 53.0777L53.0156 49.0203L47.003 43.0538L51.9962 33.998H59.9961L59.9958 30.0727L51.9962 30.0689L46.9992 21.0639L52.9134 15.0235L48.9864 11.0671L42.9957 17.0603L33.9961 12.0608V3.99806Z" fill="#E0C381"/>
</svg>
