<svg width="36" height="64" viewBox="0 0 36 64" fill="none" xmlns="http://www.w3.org/2000/svg">
<path d="M13.7848 5.56529H22.0557C22.8169 5.56529 23.4341 6.18819 23.4341 6.95654C23.4341 7.7249 22.8169 8.3478 22.0557 8.3478H13.7848C13.0235 8.3478 12.4064 7.7249 12.4064 6.95654C12.4064 6.18819 13.0235 5.56529 13.7848 5.56529Z" fill="#E0C381"/>
<path d="M7.28965 28.038V32.9141H29.1582V28.038H7.28965Z" fill="#E0C381"/>
<path d="M7.28965 42.6667V37.7904H29.1582V42.6667H7.28965Z" fill="#E0C381"/>
<path d="M7.28965 18.2857V23.1618H29.1582V18.2857H7.28965Z" fill="#E0C381"/>
<path d="M17.9202 59.8261C16.3976 59.8261 15.1633 58.5803 15.1633 57.0436C15.1633 55.5067 16.3976 54.2608 17.9202 54.2608C19.4429 54.2608 20.6771 55.5067 20.6771 57.0436C20.6771 58.5803 19.4429 59.8261 17.9202 59.8261Z" fill="#E0C381"/>
<path fill-rule="evenodd" clip-rule="evenodd" d="M30.3262 64.0001H5.51391C2.46852 64.0001 0 61.5085 0 58.4349V5.56529C0 2.4916 2.46852 0 5.51391 0H30.3262C33.3716 0 35.8401 2.4916 35.8401 5.56529V58.4349C35.8401 61.5085 33.3716 64.0001 30.3262 64.0001ZM33.0832 5.56529C33.0832 4.02831 31.8488 2.78278 30.3262 2.78278H5.51391C3.99125 2.78278 2.75694 4.02831 2.75694 5.56529V11.1305H33.0832V5.56529ZM33.0832 13.913H2.75694V50.0869H33.0832V13.913ZM33.0832 52.8696H2.75694V58.4349C2.75694 59.9716 3.99125 61.2176 5.51391 61.2176H30.3262C31.8488 61.2176 33.0832 59.9716 33.0832 58.4349V52.8696Z" fill="#E0C381"/>
</svg>
