<svg xmlns="http://www.w3.org/2000/svg" style="display: none;" role="img">
  <defs>
    <symbol id="icon-github" viewBox='0 0 512 512'>
      <desc>Github Icon</desc>
      <path d='M255.968 5.329C114.624 5.329 0 120.401 0 262.353c0 113.536 73.344 209.856 175.104 243.872 12.8 2.368 17.472-5.568 17.472-12.384 0-6.112-.224-22.272-.352-43.712-71.2 15.52-86.24-34.464-86.24-34.464-11.616-29.696-28.416-37.6-28.416-37.6-23.264-15.936 1.728-15.616 1.728-15.616 25.696 1.824 39.2 26.496 39.2 26.496 22.848 39.264 59.936 27.936 74.528 21.344 2.304-16.608 8.928-27.936 16.256-34.368-56.832-6.496-116.608-28.544-116.608-127.008 0-28.064 9.984-51.008 26.368-68.992-2.656-6.496-11.424-32.64 2.496-68 0 0 21.504-6.912 70.4 26.336 20.416-5.696 42.304-8.544 64.096-8.64 21.728.128 43.648 2.944 64.096 8.672 48.864-33.248 70.336-26.336 70.336-26.336 13.952 35.392 5.184 61.504 2.56 68 16.416 17.984 26.304 40.928 26.304 68.992 0 98.72-59.84 120.448-116.864 126.816 9.184 7.936 17.376 23.616 17.376 47.584 0 34.368-.32 62.08-.32 70.496 0 6.88 4.608 14.88 17.6 12.352C438.72 472.145 512 375.857 512 262.353 512 120.401 397.376 5.329 255.968 5.329z'/>
    </symbol>
    <symbol id="icon-wordpress" viewBox='0 0 24 24'>
      <desc>WordPress Icon</desc>
      <path d='M12 0C5.385 0 0 5.381 0 12c0 6.615 5.385 12 12 12s12-5.385 12-12c0-6.62-5.385-12-12-12zM1.21 11.999c0-1.563.333-3.048.934-4.389l5.148 14.1a10.794 10.794 0 01-6.082-9.711zM12 22.79c-1.06 0-2.081-.155-3.048-.441l3.237-9.406 3.315 9.087c.024.054.049.101.077.15-1.118.392-2.323.61-3.581.61zm1.485-15.845v-.001a22.684 22.684 0 001.233-.101c.581-.068.513-.924-.068-.891 0 0-1.747.135-2.874.135-1.06 0-2.841-.135-2.841-.135-.58-.034-.647.857-.067.891 0 0 .551.068 1.132.101l1.679 4.606-2.361 7.079L5.39 6.944c.649-.034 1.234-.101 1.234-.101.581-.068.513-.924-.068-.891 0 0-1.747.135-2.874.135-.203 0-.441-.005-.697-.014A10.781 10.781 0 0112 1.21c2.807 0 5.366 1.075 7.287 2.83a1.333 1.333 0 00-.14-.009c-1.06 0-1.81.924-1.81 1.916 0 .89.513 1.64 1.06 2.531.411.716.891 1.64.891 2.976 0 .924-.353 1.993-.823 3.489l-1.075 3.595zm7.985-.122a10.746 10.746 0 011.321 5.178c0 3.982-2.158 7.456-5.366 9.324l-.001-.001 3.295-9.528c.614-1.539.823-2.767.823-3.866a7.99 7.99 0 00-.072-1.107z'/>
    </symbol>
    <symbol id="icon-reddit" viewBox='0 0 512 512'>
      <desc>Reddit Icon</desc>
      <path d='M309.605 343.348c-11.468 11.468-36.042 15.562-53.554 15.562-17.563 0-42.086-4.094-53.555-15.562a6.887 6.887 0 00-9.777 0 6.887 6.887 0 000 9.777c18.176 18.176 53.094 19.61 63.332 19.61s45.105-1.434 63.336-19.61a6.987 6.987 0 000-9.777 6.892 6.892 0 00-9.782 0zm0 0M224 282.676C224 267.98 212.02 256 197.324 256c-14.691 0-26.676 11.98-26.676 26.676 0 14.691 11.985 26.676 26.676 26.676 14.696 0 26.676-11.98 26.676-26.676zm0 0'/>
      <path d='M256 0C114.637 0 0 114.637 0 256s114.637 256 256 256 256-114.637 256-256S397.363 0 256 0zm148.531 290.148c.563 3.688.871 7.426.871 11.215 0 57.446-66.867 103.989-149.351 103.989s-149.352-46.543-149.352-103.989c0-3.84.309-7.629.871-11.316-13.004-5.836-22.066-18.89-22.066-34.047 0-20.582 16.691-37.324 37.324-37.324 10.035 0 19.098 3.941 25.805 10.394 25.906-18.687 61.75-30.62 101.633-31.644 0-.512 18.636-89.293 18.636-89.293a6.57 6.57 0 012.868-4.196c1.484-.972 3.277-1.28 5.02-.921l62.054 13.207c4.351-8.805 13.308-14.899 23.804-14.899 14.747 0 26.676 11.93 26.676 26.676s-11.93 26.676-26.676 26.676c-14.285 0-25.855-11.266-26.52-25.395l-55.554-11.828-16.996 80.027c39.168 1.38 74.344 13.258 99.84 31.692 6.707-6.5 15.82-10.496 25.906-10.496 20.637 0 37.324 16.691 37.324 37.324 0 15.258-9.164 28.312-22.117 34.148zm0 0'/>
      <path d='M314.676 256C299.98 256 288 267.98 288 282.676c0 14.691 11.98 26.676 26.676 26.676 14.691 0 26.676-11.985 26.676-26.676 0-14.696-11.98-26.676-26.676-26.676zm0 0'/>
    </symbol>
    <symbol id="icon-monitor" viewBox='0 0 512 512'>
      <desc>Monitor Icon</desc>
      <path d='M482 25H30C13.458 25 0 38.458 0 55v298c0 16.542 13.458 30 30 30h147v74H96c-8.284 0-15 6.716-15 15s6.716 15 15 15h320c8.284 0 15-6.716 15-15s-6.716-15-15-15h-81v-74h147c16.542 0 30-13.458 30-30V55c0-16.542-13.458-30-30-30zM305 457h-98v-74h98zm177-104H30V55h452c.019 304.472.1 298 0 298z'/>
    </symbol>
    <symbol id="icon-cellphone" viewBox='0 0 512.004 512.004'>
      <desc>Cellphone Icon</desc>
      <path d='M211.706 33.23a7.5 7.5 0 007.5 7.5h50.221c4.143 0 7.5-3.358 7.5-7.5s-3.357-7.5-7.5-7.5h-50.221a7.5 7.5 0 00-7.5 7.5zM267.382 464.959c0-12.718-10.347-23.065-23.065-23.065s-23.065 10.347-23.065 23.065 10.347 23.065 23.065 23.065 23.065-10.346 23.065-23.065zm-31.131 0c0-4.447 3.618-8.065 8.065-8.065s8.065 3.618 8.065 8.065-3.618 8.065-8.065 8.065-8.065-3.617-8.065-8.065zM278.168 101.422h94.515c4.143 0 7.5-3.358 7.5-7.5s-3.357-7.5-7.5-7.5h-94.515c-4.143 0-7.5 3.358-7.5 7.5s3.357 7.5 7.5 7.5zM278.168 131.022h94.515c4.143 0 7.5-3.358 7.5-7.5s-3.357-7.5-7.5-7.5h-94.515c-4.143 0-7.5 3.358-7.5 7.5s3.357 7.5 7.5 7.5zM380.183 153.123a7.5 7.5 0 00-7.5-7.5h-94.515c-4.143 0-7.5 3.358-7.5 7.5s3.357 7.5 7.5 7.5h94.515a7.5 7.5 0 007.5-7.5z'/>
      <path d='M227.475 0h-87.78c-22.934 0-41.592 18.658-41.592 41.592v428.819c0 22.934 18.658 41.593 41.592 41.593h209.244c22.935 0 41.593-18.659 41.593-41.593V194.633c13.265-2.364 23.37-13.976 23.37-27.909V80.051c0-13.934-10.105-25.544-23.37-27.908V41.592C390.531 18.658 371.873 0 348.938 0h-86.464c-4.143 0-7.5 3.358-7.5 7.5s3.357 7.5 7.5 7.5h86.464c14.663 0 26.593 11.929 26.593 26.592v10.104H139.694c-5.806 0-10.528 4.723-10.528 10.527v362.494c0 5.806 4.723 10.529 10.528 10.529h209.244c5.806 0 10.528-4.723 10.528-10.529V323.142c0-4.142-3.357-7.5-7.5-7.5s-7.5 3.358-7.5 7.5v97.104h-200.3V105.62h93.309v61.104c0 .732.037 1.454.092 2.172-42.483 3.449-76.004 39.1-76.004 82.456 0 45.824 37.306 82.754 82.754 82.754 45.518 0 82.755-37.072 82.755-82.754 0-21.261-8-41.176-22.06-56.273h35.578c-.82 1.503-.241.539-12.111 19.2-2.655 4.174-2.264 9.491.975 13.231 3.294 3.804 8.56 4.835 12.957 2.856l2.057-.926v58.703c0 4.142 3.357 7.5 7.5 7.5s7.5-3.358 7.5-7.5v-65.654a62.884 62.884 0 0016.064-12.414v260.338c0 14.663-11.93 26.593-26.593 26.593H139.694c-14.663 0-26.592-11.93-26.592-26.593V41.592c0-14.663 11.929-26.592 26.592-26.592h87.78c4.143 0 7.5-3.358 7.5-7.5S231.617 0 227.475 0zm-59.304 90.62h-24.005V66.696h24.005zm69.304-10.569v10.568h-54.304V66.696h57.65c-2.15 3.999-3.346 8.693-3.346 13.355zm47.456 225.498c-11.982 9.002-26.398 13.557-40.614 13.557-14.186 0-28.598-4.531-40.613-13.557v-17.656c0-9.141 7.437-16.578 16.577-16.578h48.072c9.142 0 16.578 7.437 16.578 16.578zM224.302 236.3c0-11.036 8.979-20.015 20.015-20.015s20.015 8.979 20.015 20.015-8.979 20.015-20.015 20.015-20.015-8.979-20.015-20.015zm87.769 15.052c0 14.352-4.498 27.666-12.141 38.633v-2.092c0-15.904-11.82-29.093-27.135-31.259a34.812 34.812 0 006.536-20.333c0-19.307-15.707-35.015-35.015-35.015s-35.015 15.708-35.015 35.015a34.812 34.812 0 006.536 20.333c-15.315 2.167-27.135 15.356-27.135 31.259v2.093c-7.642-10.968-12.141-24.282-12.141-38.634 0-36.942 29.719-67.072 66.503-67.743 5.358 7.205 13.809 11.47 22.764 11.47h16.205c18.851 12.638 30.038 33.519 30.038 56.273zm60.459-63.127c-4.966 10.22-12.956 17.955-24.403 23.113 3.888-6.113 6.46-9.706 8.86-16.144 2.734-7.337-2.686-15.115-10.456-15.115H265.83c-7.484 0-13.355-6.253-13.355-13.355V80.052c0-7.364 5.991-13.355 13.355-13.355h119.716c7.364 0 13.355 5.991 13.355 13.355v86.672c0 7.364-5.991 13.355-13.355 13.355-5.53 0-10.643 3.257-13.016 8.146z'/>
    </symbol>
    <symbol id="icon-gear" viewBox='0 0 64 64'>
      <desc>Gear Icon</desc>
      <path d='M36.787 44.422a14.94 14.94 0 01-.771 2.884l3.131 2.837a18.877 18.877 0 01-1.516 2.646l-4.02-1.296a15.042 15.042 0 01-2.119 2.118l1.296 4.02a18.977 18.977 0 01-2.646 1.516l-2.837-3.131c-.922.349-1.885.608-2.884.771l-.893 4.136c-.505.04-1.012.077-1.528.077s-1.023-.037-1.529-.077l-.893-4.136a14.94 14.94 0 01-2.884-.771l-2.837 3.131a18.877 18.877 0 01-2.646-1.516l1.296-4.02a15.088 15.088 0 01-2.118-2.118l-4.02 1.296a18.977 18.977 0 01-1.516-2.646l3.131-2.837a14.921 14.921 0 01-.771-2.884l-4.136-.893C3.037 43.023 3 42.516 3 42s.037-1.023.077-1.529l4.136-.893a14.94 14.94 0 01.771-2.884l-3.131-2.837c.439-.924.939-1.812 1.516-2.646l4.02 1.296a15.042 15.042 0 012.119-2.118l-1.296-4.02a18.977 18.977 0 012.646-1.516l2.837 3.131a14.921 14.921 0 012.884-.771l.893-4.136C20.977 23.037 21.484 23 22 23s1.023.037 1.529.077l.893 4.136a14.94 14.94 0 012.884.771l2.837-3.131c.924.439 1.812.939 2.646 1.516l-1.296 4.02a15.042 15.042 0 012.118 2.119l4.02-1.296a18.977 18.977 0 011.516 2.646l-3.131 2.837c.349.922.608 1.885.771 2.884l4.136.893c.04.505.077 1.012.077 1.528s-.037 1.023-.077 1.529zM22 32c-5.523 0-10 4.477-10 10s4.477 10 10 10 10-4.477 10-10-4.477-10-10-10zM50.659 16.305a8.015 8.015 0 01-.611 1.48l1.579 3.026a11.051 11.051 0 01-1.815 1.815l-3.026-1.579a7.88 7.88 0 01-1.48.611l-1.024 3.26c-.422.05-.848.082-1.282.082s-.86-.032-1.281-.081l-1.024-3.26a7.946 7.946 0 01-1.48-.611l-3.026 1.579a11.051 11.051 0 01-1.815-1.815l1.579-3.026a7.88 7.88 0 01-.611-1.48l-3.26-1.024C32.032 14.86 32 14.434 32 14s.032-.86.081-1.281l3.26-1.024c.155-.517.36-1.013.611-1.48l-1.579-3.026a11.051 11.051 0 011.815-1.815l3.026 1.579a7.88 7.88 0 011.48-.611l1.024-3.26C42.14 3.032 42.566 3 43 3s.86.032 1.281.081l1.024 3.26c.517.155 1.013.36 1.48.611l3.026-1.579a11.051 11.051 0 011.815 1.815l-1.579 3.026c.252.467.456.963.611 1.48l3.26 1.024c.05.422.082.848.082 1.282s-.032.86-.081 1.281zM43 10a4 4 0 100 8 4 4 0 000-8zM58.739 38.871a6.96 6.96 0 01-.649 1.572l.995 2.094a9.07 9.07 0 01-1.548 1.548l-2.094-.995a6.941 6.941 0 01-1.572.649l-.778 2.188c-.359.044-.722.073-1.093.073s-.734-.029-1.093-.073l-.778-2.188a6.96 6.96 0 01-1.572-.649l-2.094.995a9.07 9.07 0 01-1.548-1.548l.995-2.094a6.952 6.952 0 01-.649-1.571l-2.188-.778C43.029 37.734 43 37.371 43 37s.029-.734.073-1.093l2.188-.778a6.934 6.934 0 01.649-1.571l-.995-2.094a9.07 9.07 0 011.548-1.548l2.094.995a6.941 6.941 0 011.572-.649l.778-2.188c.359-.045.722-.074 1.093-.074s.734.029 1.093.073l.778 2.188a6.96 6.96 0 011.572.649l2.094-.995a9.07 9.07 0 011.548 1.548l-.995 2.094c.278.49.495 1.017.649 1.572l2.188.778c.044.359.073.722.073 1.093s-.029.734-.073 1.093zM52 34a3 3 0 100 6 3 3 0 000-6zM61.196 5.02l-5.981-1.196-1.196 5.98 1.961.393.539-2.692A15.005 15.005 0 0158 14a14.84 14.84 0 01-3.29 9.375l1.561 1.251A17.049 17.049 0 0060 14c0-2.619-.605-5.201-1.756-7.531l2.56.512zM23.707 13.293l-1.414 1.414 1.359 1.359A26.03 26.03 0 0022 16a25.947 25.947 0 00-19.978 9.359l1.536 1.281A23.951 23.951 0 0122 18c.509 0 1.017.029 1.525.061l-1.232 1.232 1.414 1.414L27.414 17z'/>
    </symbol>
    <symbol id="icon-hidden-twitter" viewBox="-21 -81 681.335 681" fill="white">
      <desc>Twitter Icon</desc>
      <path d='M200.965 515.293c241.05 0 372.87-199.703 372.87-372.871 0-5.672-.116-11.32-.37-16.938a266.692 266.692 0 0065.37-67.863c-23.48 10.441-48.753 17.461-75.257 20.637 27.055-16.23 47.828-41.895 57.625-72.488a262.838 262.838 0 01-83.215 31.808c-23.914-25.473-57.965-41.402-95.664-41.402-72.367 0-131.058 58.687-131.058 131.031 0 10.29 1.152 20.29 3.398 29.883C205.746 151.61 109.16 99.465 44.531 20.168 33.281 39.531 26.79 62.031 26.79 86.039c0 45.461 23.137 85.606 58.316 109.082-21.5-.66-41.695-6.562-59.351-16.387-.02.551-.02 1.086-.02 1.672 0 63.469 45.172 116.461 105.145 128.469a131.531 131.531 0 01-34.559 4.61c-8.43 0-16.648-.829-24.632-2.364 16.683 52.07 65.066 89.961 122.425 91.024-44.855 35.156-101.36 56.097-162.77 56.097-10.562 0-21.003-.605-31.261-1.816 58 37.176 126.871 58.87 200.887 58.87'/>
    </symbol>
    <symbol id="icon-hidden-facebook" viewBox="0 0 24 24" fill="white">
      <desc>Facebook Icon</desc>
      <path d="M15.997 3.985h2.191V.169C17.81.117 16.51 0 14.996 0c-3.159 0-5.323 1.987-5.323 5.639V9H6.187v4.266h3.486V24h4.274V13.267h3.345l.531-4.266h-3.877V6.062c.001-1.233.333-2.077 2.051-2.077z"/> 
    </symbol> 
    <symbol id="icon-logo" viewBox="0 0 114 64" fill="#AF9559">
      <desc>Logo Icon</desc>
      <path d="M20.238 42.379c0 1.033-.068 1.914-.205 2.644-.122.73-.296 1.322-.524 1.778-.228.456-.51.79-.844 1.003-.319.212-.668.319-1.048.319-.289 0-.608-.099-.958-.297a5.604 5.604 0 01-1.002-.729 5.897 5.897 0 01-.775-.889c-.198-.304-.297-.57-.297-.798 0-.152.015-.25.046-.296a.28.28 0 01.16-.046c.075.016.159.038.25.069.106.03.22.045.342.045.426 0 .73-.266.912-.797.197-.547.296-1.414.296-2.599v-25.78a20.86 20.86 0 00-4.171.775c-1.338.38-2.515.957-3.533 1.733-1.018.774-1.831 1.785-2.44 3.031-.607 1.23-.911 2.75-.911 4.559 0 .805.076 1.535.228 2.188a8.92 8.92 0 00.638 1.732c.258.517.54.973.844 1.368.319.395.63.745.934 1.049.258-.076.44-.046.547.09.107.138.16.327.16.57 0 .305-.069.624-.205.958a3.43 3.43 0 01-.502.889 3.343 3.343 0 01-.73.66 1.45 1.45 0 01-.797.252c-.122 0-.243-.016-.365-.046a.925.925 0 01-.342-.205c-.334-.243-.737-.638-1.208-1.185-.47-.563-.92-1.254-1.345-2.075-.425-.82-.79-1.755-1.094-2.803-.304-1.064-.456-2.211-.456-3.442 0-2.25.418-4.232 1.254-5.95a12.047 12.047 0 013.488-4.307c1.489-1.17 3.251-2.052 5.288-2.644 2.051-.593 4.293-.89 6.724-.89.562 0 1.238.008 2.029.023.805 0 1.603.008 2.393.023.79.015 1.497.03 2.12.046h1.299c.198 0 .357-.015.479-.046.136-.046.243-.091.319-.137.091-.045.16-.083.205-.114.046-.045.084-.068.114-.068.076 0 .144.053.205.16.076.09.137.212.182.364.061.137.107.297.137.479a3.322 3.322 0 01-.068 1.413c-.076.289-.19.555-.342.798a2.035 2.035 0 01-.57.57 1.405 1.405 0 01-.798.228h-.934c-.441-.015-.95-.03-1.527-.046l-1.824-.046c-.638-.015-1.23-.03-1.778-.045v26.464zm6.382-26.145c0-.334-.03-.6-.09-.798a1.73 1.73 0 00-.16-.456.762.762 0 00-.16-.273.44.44 0 01-.068-.228c0-.091.045-.167.137-.228.09-.06.212-.114.364-.16.152-.045.312-.075.479-.09a3.19 3.19 0 01.524-.046c.775 0 1.383.205 1.824.615.456.395.683.874.683 1.436v15.318c.32-.654.662-1.262 1.026-1.824a9.078 9.078 0 011.208-1.459c.44-.425.904-.752 1.39-.98a3.66 3.66 0 011.619-.364c.775 0 1.413.144 1.915.433.501.288.896.66 1.185 1.117.289.455.486.964.593 1.527a7.76 7.76 0 01.182 1.64v9.665c0 .107.008.282.023.525.015.228.06.463.137.706.076.243.19.456.342.639.167.182.402.273.706.273.471 0 .874-.167 1.208-.501a4.32 4.32 0 00.89-1.254c.258-.502.463-1.041.615-1.618.167-.593.303-1.148.41-1.664.091-.471.228-.813.41-1.026.198-.213.403-.327.616-.342.227-.03.456.023.683.16.228.136.426.319.593.547.167.212.289.456.365.729.09.273.106.532.045.775a21.24 21.24 0 01-.843 2.439 10.085 10.085 0 01-1.3 2.348 7.107 7.107 0 01-1.914 1.778c-.745.47-1.618.706-2.621.706-.623 0-1.178-.121-1.664-.364A3.892 3.892 0 0136.74 45a4.273 4.273 0 01-.775-1.39 5.592 5.592 0 01-.25-1.687V32.44c0-.364-.008-.706-.024-1.025-.015-.32-.06-.6-.136-.844a1.198 1.198 0 00-.297-.57c-.121-.151-.296-.227-.524-.227-.334 0-.745.228-1.23.683-.487.456-.966 1.049-1.437 1.778a14.05 14.05 0 00-1.253 2.485c-.35.912-.57 1.831-.662 2.758v6.815c0 .228-.007.464-.022.707 0 .228-.046.433-.137.615a.994.994 0 01-.388.48c-.167.136-.418.204-.752.204-.228 0-.479-.03-.752-.09a1.9 1.9 0 01-.73-.297 1.68 1.68 0 01-.546-.616c-.137-.258-.206-.608-.206-1.048V16.234zm27.923 15.18c0 .867-.152 1.756-.456 2.668a9.132 9.132 0 01-1.322 2.598c-.577.806-1.3 1.535-2.165 2.188-.851.639-1.84 1.125-2.964 1.46.152.394.35.774.593 1.139.258.35.562.653.912.912.35.258.752.463 1.208.615.47.152 1.01.228 1.618.228.912 0 1.695-.167 2.348-.501.653-.35 1.2-.806 1.641-1.368a7.082 7.082 0 001.094-1.892 12.01 12.01 0 00.616-2.12c.106-.516.319-.858.638-1.026.334-.182.669-.227 1.003-.136.35.09.646.288.889.592.258.29.364.639.319 1.049-.06.471-.167 1.01-.32 1.618a9.192 9.192 0 01-.637 1.847 10.305 10.305 0 01-1.117 1.846 7.458 7.458 0 01-1.642 1.596c-.653.47-1.42.85-2.302 1.14-.881.288-1.892.432-3.031.432a7.863 7.863 0 01-3.1-.638 8.11 8.11 0 01-2.644-1.778c-.76-.79-1.376-1.755-1.847-2.895-.456-1.155-.683-2.462-.683-3.92 0-1.474.205-2.842.615-4.103.41-1.277.95-2.378 1.618-3.305.669-.927 1.429-1.65 2.28-2.166.85-.532 1.724-.797 2.621-.797.654 0 1.239.113 1.755.341.532.228.98.555 1.345.98.365.41.638.905.82 1.482.198.578.297 1.216.297 1.915zm-7.522 5.517c0 .137.008.274.023.41.015.137.023.281.023.433a6.456 6.456 0 001.572-1.048 6.574 6.574 0 001.208-1.459 7.17 7.17 0 00.775-1.778c.183-.653.274-1.33.274-2.029 0-.516-.091-.919-.274-1.208-.167-.288-.402-.433-.706-.433-.38 0-.722.13-1.026.388a3.71 3.71 0 00-.775 1.026 7.62 7.62 0 00-.547 1.413c-.137.516-.25 1.04-.342 1.572-.091.532-.152 1.041-.182 1.528-.03.47-.038.866-.023 1.185zm23.842 6.291c.472 0 .874-.167 1.209-.501a4.32 4.32 0 00.888-1.254c.259-.502.464-1.041.616-1.618.167-.593.304-1.148.41-1.664.106-.487.258-.836.456-1.049.213-.228.44-.342.684-.342a.98.98 0 01.547.183c.198.106.372.25.524.433.167.182.296.387.388.615.106.228.16.456.16.684v.114a.724.724 0 01-.046.205 18.414 18.414 0 01-.82 2.439 10.085 10.085 0 01-1.3 2.348 6.979 6.979 0 01-1.938 1.778c-.744.47-1.618.706-2.621.706-.82 0-1.535-.175-2.143-.524a3.941 3.941 0 01-1.436-1.39 6.268 6.268 0 01-1.71 1.344c-.653.38-1.42.57-2.301.57-.912 0-1.718-.182-2.416-.547a5.24 5.24 0 01-1.733-1.481c-.47-.639-.828-1.383-1.071-2.234a10.895 10.895 0 01-.342-2.781c0-1.945.311-3.693.934-5.243.623-1.55 1.452-2.864 2.485-3.943a10.742 10.742 0 013.533-2.507 10.363 10.363 0 014.149-.866c.638 0 1.155.174 1.55.524.395.35.592.828.592 1.436 0 .395-.045.676-.137.843-.076.152-.228.228-.456.228-.212 0-.433-.015-.66-.046a5.341 5.341 0 00-.707-.045c-.882 0-1.778.197-2.69.593-.912.38-1.74.972-2.484 1.777-.73.79-1.33 1.801-1.801 3.032-.471 1.216-.707 2.667-.707 4.354 0 1.23.236 2.18.707 2.849.471.653 1.117.98 1.938.98a2.06 2.06 0 001.595-.706 5.82 5.82 0 001.026-1.71v-7.203c0-.228-.015-.418-.046-.57a2.244 2.244 0 00-.068-.387 5.076 5.076 0 00-.046-.274 1.535 1.535 0 01-.023-.25c0-.244.114-.434.342-.57a1.6 1.6 0 01.866-.228c.775 0 1.39.205 1.847.615.456.395.684.874.684 1.436v7.704c0 .259.03.517.09.775.062.244.153.471.274.684.122.198.281.365.479.502.213.121.456.182.73.182zm-.866-20.173c.35.03.737.054 1.163.069.364.03.805.053 1.322.068.516 0 1.094.008 1.732.023v-7.91c0-.334-.03-.6-.091-.797a1.731 1.731 0 00-.16-.456.764.764 0 00-.16-.274.44.44 0 01-.068-.228c0-.09.046-.167.137-.228.091-.06.213-.114.365-.16.152-.045.311-.075.479-.09a3.19 3.19 0 01.524-.046c.775 0 1.383.205 1.823.616.456.395.684.873.684 1.436v8.183c1.429 0 2.933-.016 4.513-.046a167.79 167.79 0 004.787-.16c.213-.227.38-.311.502-.25.136.06.22.205.25.433.046.228.053.509.023.843-.03.335-.091.661-.182.98-.091.304-.22.57-.388.798-.152.228-.326.342-.524.342-1.87.046-3.525.076-4.97.091h-4.01V41.08c0 .76.143 1.307.432 1.642.289.334.676.501 1.163.501.47 0 .873-.167 1.208-.501.35-.335.646-.753.889-1.254.258-.502.463-1.041.615-1.618.167-.593.304-1.148.41-1.664.092-.487.244-.836.456-1.049.213-.228.433-.342.661-.342.183 0 .373.061.57.183.198.106.373.25.525.433.167.182.296.387.387.615.106.228.16.456.16.684v.114a.724.724 0 01-.046.205 18.43 18.43 0 01-.82 2.439 9.633 9.633 0 01-1.323 2.348 7.107 7.107 0 01-1.914 1.778c-.745.47-1.619.706-2.622.706-.623 0-1.2-.099-1.732-.296a3.217 3.217 0 01-1.345-.912c-.38-.41-.676-.942-.889-1.595-.213-.654-.319-1.444-.319-2.371V26.286h-1.39c-.395-.015-.73-.03-1.003-.045-.32-.016-.6-.03-.844-.046-.364 0-.684-.16-.957-.479a2.76 2.76 0 01-.593-1.094c-.121-.395-.136-.752-.045-1.071.076-.334.28-.502.615-.502zm23.432 8.366c0 .866-.152 1.755-.456 2.667a9.131 9.131 0 01-1.322 2.598c-.577.806-1.299 1.535-2.165 2.188-.85.639-1.839 1.125-2.963 1.46.152.394.35.774.593 1.139.258.35.562.653.911.912.35.258.752.463 1.208.615.471.152 1.01.228 1.619.228.911 0 1.694-.167 2.347-.501.654-.35 1.2-.806 1.642-1.368a7.076 7.076 0 001.094-1.892c.273-.699.478-1.406.615-2.12.106-.516.32-.858.638-1.026.335-.182.669-.227 1.003-.136.35.09.646.288.89.592.258.29.364.639.318 1.049a14.36 14.36 0 01-.319 1.618 9.193 9.193 0 01-.638 1.847 10.305 10.305 0 01-1.117 1.846 7.458 7.458 0 01-1.641 1.596c-.653.47-1.42.85-2.302 1.14-.882.288-1.892.432-3.032.432a7.864 7.864 0 01-3.1-.638 8.11 8.11 0 01-2.644-1.778c-.76-.79-1.375-1.755-1.846-2.895-.456-1.155-.684-2.462-.684-3.92 0-1.474.205-2.842.615-4.103.41-1.277.95-2.378 1.619-3.305.668-.927 1.428-1.65 2.28-2.166.85-.532 1.724-.797 2.62-.797.654 0 1.239.113 1.756.341.531.228.98.555 1.344.98.365.41.639.905.821 1.482.198.578.296 1.216.296 1.915zm-7.522 5.516c0 .137.008.274.023.41.015.137.023.281.023.433a6.458 6.458 0 001.573-1.048 6.576 6.576 0 001.208-1.459c.334-.547.593-1.14.775-1.778a7.51 7.51 0 00.273-2.029c0-.516-.09-.919-.273-1.208-.167-.288-.403-.433-.707-.433-.38 0-.722.13-1.026.388-.288.258-.547.6-.775 1.026-.212.41-.395.88-.547 1.413-.136.516-.25 1.04-.341 1.572a14.37 14.37 0 00-.183 1.528c-.03.47-.038.866-.023 1.185zm20.811 9.368a6.056 6.056 0 01-1.687-.25 4.15 4.15 0 01-1.55-.867c-.455-.41-.835-.95-1.139-1.618-.289-.684-.433-1.542-.433-2.576 0-1.504.197-3.092.592-4.764.411-1.686.996-3.54 1.755-5.561h-4.08a54.506 54.506 0 01-.091 1.732 33.8 33.8 0 01-.547 4.627c-.137.806-.311 1.55-.524 2.234-.152.486-.395.767-.73.843-.319.076-.638.023-.957-.16a2.195 2.195 0 01-.775-.843 1.496 1.496 0 01-.137-1.14c.122-.47.228-1.04.32-1.709.09-.684.16-1.398.205-2.142.06-.76.106-1.512.136-2.257.03-.76.054-1.436.069-2.029a4.648 4.648 0 01-1.436-1.208c-.38-.501-.57-1.094-.57-1.778 0-.319.06-.608.182-.866.137-.273.312-.501.525-.684.212-.197.463-.342.752-.433.288-.106.585-.16.889-.16.273 0 .554.039.843.115.304.076.585.212.843.41.274.197.517.456.73.775.213.319.387.714.524 1.185l.957.114c.274.015.502.03.684.046.183.015.335.023.456.023H105.328c.137 0 .334.083.592.25.274.167.54.388.798.661.259.259.471.54.638.844.183.304.251.592.206.866 0 .091-.054.311-.16.66a88.24 88.24 0 00-.889 3.17 35.51 35.51 0 00-.889 4.535 18.156 18.156 0 00-.159 2.37c0 .32.038.631.114.935.076.304.189.578.341.82.152.229.342.411.57.548.243.137.525.205.844.205.532 0 .987-.167 1.367-.501.38-.335.699-.753.958-1.254.258-.502.463-1.041.615-1.618.167-.593.304-1.148.41-1.664.092-.487.244-.836.456-1.049.213-.228.433-.342.661-.342.183 0 .373.061.57.183.198.106.372.25.524.433.168.182.297.387.388.615.106.228.159.456.159.684a.602.602 0 01-.022.182.41.41 0 00-.023.137 21.212 21.212 0 01-.844 2.439 10.066 10.066 0 01-1.299 2.348 7.115 7.115 0 01-1.914 1.778c-.745.47-1.619.706-2.622.706z"/>
      <path d="M19.238 41.379c0 1.033-.068 1.914-.205 2.644-.122.73-.296 1.322-.524 1.778-.228.456-.51.79-.844 1.003-.319.212-.668.319-1.048.319-.289 0-.608-.099-.958-.297a5.604 5.604 0 01-1.003-.729 5.897 5.897 0 01-.774-.889c-.198-.304-.297-.57-.297-.798 0-.152.015-.25.046-.296a.28.28 0 01.16-.046c.075.016.159.038.25.069.106.03.22.045.342.045.426 0 .73-.266.912-.797.197-.547.296-1.414.296-2.599v-25.78a20.86 20.86 0 00-4.171.775c-1.338.38-2.515.957-3.533 1.732-1.018.775-1.831 1.786-2.44 3.032-.607 1.23-.911 2.75-.911 4.559 0 .805.076 1.535.228 2.188a8.92 8.92 0 00.638 1.732c.258.517.54.973.844 1.368.319.395.63.745.934 1.049.258-.076.44-.046.547.09.107.138.16.327.16.57 0 .305-.069.624-.205.958a3.43 3.43 0 01-.502.889 3.343 3.343 0 01-.73.66 1.45 1.45 0 01-.797.252c-.122 0-.243-.016-.365-.046a.925.925 0 01-.342-.205c-.334-.243-.737-.638-1.208-1.185-.47-.563-.92-1.254-1.345-2.075-.425-.82-.79-1.755-1.094-2.803-.304-1.064-.456-2.211-.456-3.442 0-2.25.418-4.232 1.254-5.95a12.047 12.047 0 013.488-4.307c1.489-1.17 3.251-2.052 5.288-2.644 2.051-.593 4.293-.89 6.724-.89.562 0 1.238.008 2.029.023.805 0 1.603.008 2.393.023.79.015 1.497.03 2.12.046h1.299c.198 0 .357-.015.479-.046.136-.046.243-.091.319-.137.091-.045.16-.083.205-.114.046-.045.084-.068.114-.068.076 0 .144.053.205.16.076.09.137.212.182.364.061.137.107.297.137.479a3.322 3.322 0 01-.068 1.413c-.076.289-.19.555-.342.798a2.035 2.035 0 01-.57.57 1.405 1.405 0 01-.798.228h-.934c-.441-.015-.95-.03-1.527-.046l-1.824-.046c-.638-.015-1.23-.03-1.778-.045v26.464zm6.382-26.145c0-.334-.03-.6-.09-.798a1.73 1.73 0 00-.16-.456.762.762 0 00-.16-.273.44.44 0 01-.068-.228c0-.091.045-.167.137-.228.09-.06.212-.114.364-.16.152-.045.312-.075.479-.09a3.19 3.19 0 01.524-.046c.775 0 1.383.205 1.824.615.456.395.683.874.683 1.436v15.318c.32-.654.662-1.262 1.026-1.824a9.078 9.078 0 011.208-1.459c.44-.425.904-.752 1.39-.98a3.66 3.66 0 011.619-.364c.775 0 1.413.144 1.915.433.501.288.896.66 1.185 1.117.289.455.486.964.593 1.527a7.76 7.76 0 01.182 1.64v9.665c0 .107.008.282.023.525.015.228.06.463.137.706.076.243.19.456.342.639.167.182.402.273.706.273.471 0 .874-.167 1.208-.501a4.32 4.32 0 00.89-1.254c.258-.502.463-1.041.615-1.618.167-.593.303-1.148.41-1.664.091-.471.228-.813.41-1.026.198-.213.403-.327.616-.342.227-.03.456.023.683.16.228.136.426.319.593.547.167.212.289.456.365.729.09.273.106.532.045.775a21.24 21.24 0 01-.843 2.439 10.085 10.085 0 01-1.3 2.348 7.107 7.107 0 01-1.914 1.778c-.745.47-1.618.706-2.621.706-.623 0-1.178-.121-1.664-.364A3.892 3.892 0 0135.74 44a4.273 4.273 0 01-.775-1.39 5.592 5.592 0 01-.25-1.687V31.44c0-.364-.008-.706-.024-1.025-.015-.32-.06-.6-.136-.844a1.198 1.198 0 00-.297-.57c-.121-.151-.296-.227-.524-.227-.334 0-.745.228-1.23.683-.487.456-.966 1.049-1.437 1.778a14.05 14.05 0 00-1.254 2.485c-.349.912-.57 1.831-.66 2.758v6.815c0 .228-.008.464-.023.707 0 .228-.046.433-.137.615a.994.994 0 01-.388.48c-.167.136-.418.204-.752.204-.228 0-.479-.03-.752-.09a1.9 1.9 0 01-.73-.297 1.68 1.68 0 01-.546-.616c-.137-.258-.206-.608-.206-1.048V15.234zm27.923 15.18c0 .867-.152 1.756-.456 2.668a9.132 9.132 0 01-1.322 2.598c-.577.806-1.3 1.535-2.165 2.188-.851.639-1.84 1.125-2.964 1.46.152.394.35.774.593 1.139.258.35.562.653.912.912.35.258.752.463 1.208.615.47.152 1.01.228 1.618.228.912 0 1.695-.167 2.348-.501.653-.35 1.2-.806 1.641-1.368a7.082 7.082 0 001.094-1.892 12.01 12.01 0 00.616-2.12c.106-.516.319-.858.638-1.026.334-.182.669-.227 1.003-.136.35.09.646.288.889.592.258.29.364.639.319 1.049-.06.471-.167 1.01-.32 1.618a9.192 9.192 0 01-.637 1.847 10.305 10.305 0 01-1.117 1.846 7.458 7.458 0 01-1.642 1.596c-.653.47-1.42.85-2.302 1.14-.881.288-1.892.432-3.031.432a7.863 7.863 0 01-3.1-.638 8.11 8.11 0 01-2.644-1.778c-.76-.79-1.376-1.755-1.847-2.895-.456-1.155-.683-2.462-.683-3.92 0-1.474.205-2.842.615-4.103.41-1.277.95-2.378 1.618-3.305.669-.927 1.429-1.65 2.28-2.166.85-.532 1.724-.797 2.621-.797.654 0 1.239.113 1.755.341.532.228.98.555 1.345.98.365.41.638.905.82 1.482.198.578.297 1.216.297 1.915zm-7.522 5.517c0 .137.008.274.023.41.015.137.023.281.023.433a6.456 6.456 0 001.572-1.048 6.574 6.574 0 001.208-1.459 7.17 7.17 0 00.775-1.778c.183-.653.274-1.33.274-2.029 0-.516-.091-.919-.274-1.208-.167-.288-.402-.433-.706-.433-.38 0-.722.13-1.026.388a3.71 3.71 0 00-.775 1.026 7.62 7.62 0 00-.547 1.413c-.137.516-.25 1.04-.342 1.572-.091.532-.152 1.041-.182 1.528-.03.47-.038.866-.023 1.185zm23.842 6.291c.472 0 .874-.167 1.209-.501a4.32 4.32 0 00.888-1.254c.259-.502.464-1.041.616-1.618.167-.593.304-1.148.41-1.664.106-.487.258-.836.456-1.049.213-.228.44-.342.684-.342a.98.98 0 01.547.183c.198.106.372.25.524.433.167.182.296.387.388.615.106.228.16.456.16.684v.114a.724.724 0 01-.046.205 18.414 18.414 0 01-.82 2.439 10.085 10.085 0 01-1.3 2.348 6.979 6.979 0 01-1.938 1.778c-.744.47-1.618.706-2.621.706-.82 0-1.535-.175-2.143-.524a3.941 3.941 0 01-1.436-1.39 6.268 6.268 0 01-1.71 1.344c-.653.38-1.42.57-2.301.57-.912 0-1.718-.182-2.416-.547a5.24 5.24 0 01-1.733-1.481c-.47-.639-.828-1.383-1.071-2.234a10.895 10.895 0 01-.342-2.781c0-1.945.311-3.693.934-5.243.623-1.55 1.452-2.864 2.485-3.943a10.742 10.742 0 013.533-2.507 10.363 10.363 0 014.149-.866c.638 0 1.155.174 1.55.524.395.35.592.828.592 1.436 0 .395-.045.676-.137.843-.076.152-.228.228-.456.228-.212 0-.433-.015-.66-.046a5.341 5.341 0 00-.707-.045c-.882 0-1.778.197-2.69.593-.911.38-1.74.972-2.484 1.777-.73.79-1.33 1.801-1.801 3.032-.471 1.216-.707 2.667-.707 4.354 0 1.23.236 2.18.707 2.849.471.653 1.117.98 1.938.98a2.06 2.06 0 001.595-.706 5.82 5.82 0 001.026-1.71v-7.203c0-.228-.015-.418-.046-.57a2.244 2.244 0 00-.068-.387 5.076 5.076 0 00-.046-.274 1.535 1.535 0 01-.023-.25c0-.244.114-.434.342-.57a1.6 1.6 0 01.866-.228c.775 0 1.39.205 1.847.615.456.395.684.874.684 1.436v7.704c0 .259.03.517.09.775.062.244.153.471.274.684.122.198.281.365.479.502.213.121.456.182.73.182zm-.866-20.173c.35.03.737.054 1.163.069.364.03.805.053 1.322.068.516 0 1.094.008 1.732.023v-7.91c0-.334-.03-.6-.091-.797a1.731 1.731 0 00-.16-.456.764.764 0 00-.16-.274.44.44 0 01-.068-.228c0-.09.046-.167.137-.228.091-.06.213-.114.365-.16.152-.045.311-.075.479-.09a3.19 3.19 0 01.524-.046c.775 0 1.383.205 1.823.616.456.395.684.873.684 1.436v8.183c1.429 0 2.933-.016 4.513-.046a167.79 167.79 0 004.787-.16c.213-.227.38-.311.502-.25.136.06.22.205.25.433.046.228.053.509.023.843-.03.335-.091.661-.182.98-.091.304-.22.57-.388.798-.152.228-.326.342-.524.342-1.87.046-3.525.076-4.97.091h-4.01V40.08c0 .76.143 1.307.432 1.642.289.334.676.501 1.163.501.47 0 .873-.167 1.208-.501.35-.335.646-.753.889-1.254.258-.502.463-1.041.615-1.618.167-.593.304-1.148.41-1.664.092-.487.244-.836.456-1.049.213-.228.433-.342.661-.342.183 0 .373.061.57.183.198.106.373.25.525.433.167.182.296.387.387.615.106.228.16.456.16.684v.114a.724.724 0 01-.046.205 18.43 18.43 0 01-.82 2.439 9.633 9.633 0 01-1.323 2.348 7.107 7.107 0 01-1.914 1.778c-.745.47-1.619.706-2.622.706-.623 0-1.2-.099-1.732-.296a3.217 3.217 0 01-1.345-.912c-.38-.41-.676-.942-.889-1.595-.213-.654-.319-1.444-.319-2.371V25.286h-1.39c-.395-.015-.73-.03-1.003-.045-.32-.016-.6-.03-.844-.046-.364 0-.684-.16-.957-.479a2.76 2.76 0 01-.593-1.094c-.121-.395-.136-.752-.045-1.071.076-.334.28-.502.615-.502zm23.432 8.366c0 .866-.152 1.755-.456 2.667a9.131 9.131 0 01-1.322 2.598c-.577.806-1.299 1.535-2.165 2.188-.85.639-1.839 1.125-2.963 1.46.152.394.35.774.593 1.139.258.35.562.653.911.912.35.258.752.463 1.208.615.471.152 1.01.228 1.619.228.911 0 1.694-.167 2.347-.501.654-.35 1.2-.806 1.642-1.368a7.076 7.076 0 001.094-1.892c.273-.699.478-1.406.615-2.12.106-.516.32-.858.638-1.026.335-.182.669-.227 1.003-.136.35.09.646.288.89.592.258.29.364.639.318 1.049a14.36 14.36 0 01-.319 1.618 9.193 9.193 0 01-.638 1.847 10.305 10.305 0 01-1.117 1.846 7.458 7.458 0 01-1.641 1.596c-.653.47-1.42.85-2.302 1.14-.882.288-1.892.432-3.032.432a7.864 7.864 0 01-3.1-.638 8.11 8.11 0 01-2.644-1.778c-.76-.79-1.375-1.755-1.846-2.895-.456-1.155-.684-2.462-.684-3.92 0-1.474.205-2.842.615-4.103.41-1.277.95-2.378 1.619-3.305.668-.927 1.428-1.65 2.28-2.166.85-.532 1.724-.797 2.62-.797.654 0 1.239.113 1.756.341.531.228.98.555 1.344.98.365.41.639.905.821 1.482.198.578.296 1.216.296 1.915zm-7.522 5.516c0 .137.008.274.023.41.015.137.023.281.023.433a6.458 6.458 0 001.573-1.048 6.576 6.576 0 001.208-1.459c.334-.547.593-1.14.775-1.778a7.51 7.51 0 00.273-2.029c0-.516-.09-.919-.273-1.208-.167-.288-.403-.433-.707-.433-.38 0-.722.13-1.026.388-.288.258-.547.6-.775 1.026-.212.41-.395.88-.547 1.413-.136.516-.25 1.04-.341 1.572a14.37 14.37 0 00-.183 1.528c-.03.47-.038.866-.023 1.185zm20.811 9.368a6.056 6.056 0 01-1.687-.25 4.15 4.15 0 01-1.55-.867c-.455-.41-.835-.95-1.139-1.618-.289-.684-.433-1.542-.433-2.576 0-1.504.197-3.092.592-4.764.411-1.686.996-3.54 1.755-5.561h-4.08a56.453 56.453 0 01-.09 1.732 33.8 33.8 0 01-.547 4.627c-.138.806-.312 1.55-.525 2.234-.152.486-.395.767-.73.843-.319.076-.638.023-.957-.16a2.195 2.195 0 01-.775-.843 1.496 1.496 0 01-.137-1.14c.122-.47.228-1.04.32-1.709.09-.684.16-1.398.205-2.142.06-.76.106-1.512.136-2.257.03-.76.054-1.436.069-2.029a4.648 4.648 0 01-1.436-1.208c-.38-.501-.57-1.094-.57-1.778 0-.319.06-.608.182-.866.137-.273.312-.501.525-.684.212-.197.463-.342.752-.433.288-.106.585-.16.889-.16.273 0 .554.039.843.115.304.076.585.212.843.41.274.197.517.456.73.775.213.319.387.714.524 1.185l.957.114c.274.015.502.03.684.046.183.015.335.023.456.023H104.328c.137 0 .334.083.592.25.274.167.54.388.798.661.259.259.471.54.638.844.183.304.251.592.206.866 0 .091-.054.311-.16.66a88.24 88.24 0 00-.889 3.17 35.51 35.51 0 00-.889 4.535 18.156 18.156 0 00-.159 2.37c0 .32.038.631.114.935.076.304.189.578.341.82.152.229.342.411.57.548.243.137.525.205.844.205.532 0 .987-.167 1.367-.501.38-.335.699-.753.958-1.254.258-.502.463-1.041.615-1.618.167-.593.304-1.148.41-1.664.092-.487.244-.836.456-1.049.213-.228.433-.342.661-.342.183 0 .373.061.57.183.198.106.372.25.524.433.168.182.297.387.388.615.106.228.159.456.159.684a.602.602 0 01-.022.182.41.41 0 00-.023.137 21.212 21.212 0 01-.844 2.439 10.066 10.066 0 01-1.299 2.348 7.115 7.115 0 01-1.914 1.778c-.745.47-1.619.706-2.622.706z"/>
    </symbol> 
    <symbol id="icon-menu" viewBox="0 0 512 512">
      <desc>Logo Icon</desc>
      <path d="M464.883 64.267H47.117C21.137 64.267 0 85.403 0 111.416c0 25.98 21.137 47.117 47.117 47.117h417.766c25.98 0 47.117-21.137 47.117-47.117 0-26.013-21.137-47.149-47.117-47.149zM464.883 208.867H47.117C21.137 208.867 0 230.003 0 256.016c0 25.98 21.137 47.117 47.117 47.117h417.766c25.98 0 47.117-21.137 47.117-47.117 0-26.013-21.137-47.149-47.117-47.149zM464.883 353.467H47.117C21.137 353.467 0 374.604 0 400.616c0 25.98 21.137 47.117 47.117 47.117h417.766c25.98 0 47.117-21.137 47.117-47.117 0-26.012-21.137-47.149-47.117-47.149z"/>
    </symbol>
  </defs>
</svg>

